<svg width="215" height="141" viewBox="0 0 215 141" fill="none" xmlns="http://www.w3.org/2000/svg">
<path d="M84.086 51.0281H76.9114V49.7185H77.2531C77.7276 49.7185 78.0977 49.709 78.3634 49.69C78.6481 49.6521 78.8569 49.5761 78.9898 49.4623C79.1416 49.3294 79.2365 49.1491 79.2745 48.9213C79.3124 48.6746 79.3314 48.3424 79.3314 47.9248V41.4335C79.3314 40.2568 79.0752 39.3552 78.5627 38.7288C78.0692 38.1025 77.348 37.7893 76.399 37.7893C75.7726 37.7893 75.1937 37.9696 74.6622 38.3303C74.1308 38.6719 73.6658 39.1464 73.2672 39.7538C72.8876 40.3612 72.5839 41.0824 72.3561 41.9175C72.1473 42.7527 72.043 43.6543 72.043 44.6223V47.9248C72.043 48.3424 72.0619 48.6746 72.0999 48.9213C72.1379 49.1491 72.2233 49.3294 72.3561 49.4623C72.508 49.5761 72.7168 49.6521 72.9825 49.69C73.2672 49.709 73.6468 49.7185 74.1213 49.7185H74.5199V51.0281H67.2884V49.7185H67.687C68.1615 49.7185 68.5316 49.709 68.7973 49.69C69.082 49.6521 69.2908 49.5761 69.4237 49.4623C69.5565 49.3294 69.6419 49.1491 69.6799 48.9213C69.7179 48.6746 69.7368 48.3424 69.7368 47.9248V41.4905C69.7368 40.2947 69.4901 39.3837 68.9966 38.7573C68.5221 38.112 67.8293 37.7893 66.9183 37.7893C66.2539 37.7893 65.6466 37.9601 65.0961 38.3018C64.5647 38.6245 64.0997 39.08 63.7011 39.6684C63.3025 40.2568 62.9893 40.959 62.7615 41.7752C62.5528 42.5914 62.4484 43.4929 62.4484 44.4799V47.9248C62.4484 48.3424 62.4673 48.6746 62.5053 48.9213C62.5433 49.1491 62.6287 49.3294 62.7615 49.4623C62.9134 49.5761 63.1222 49.6521 63.3879 49.69C63.6726 49.709 64.0522 49.7185 64.5267 49.7185H64.8968V51.0281H57.3237V49.7185H58.0924C58.5669 49.7185 58.937 49.709 59.2027 49.69C59.4874 49.6521 59.6962 49.5761 59.8291 49.4623C59.9619 49.3294 60.0473 49.1491 60.0853 48.9213C60.1233 48.6746 60.1423 48.3424 60.1423 47.9248V39.8392C60.1423 38.5675 59.4779 37.9317 58.1493 37.9317H57.4091V36.6505L62.4484 36.2804V40.551H62.5053C62.6572 40.1334 62.79 39.7823 62.9039 39.4975C63.0178 39.2128 63.1317 38.9661 63.2455 38.7573C63.3784 38.5295 63.5113 38.3303 63.6441 38.1594C63.777 37.9696 63.9383 37.7703 64.1281 37.5616C65.0012 36.5746 66.216 36.0811 67.7724 36.0811C68.6265 36.0811 69.3952 36.3088 70.0785 36.7644C70.7618 37.2199 71.2648 37.8463 71.5874 38.6434C71.7203 38.9471 71.8057 39.2413 71.8437 39.526C71.9006 39.7917 71.9386 40.1714 71.9575 40.6648H72.0145C72.2802 39.8677 72.5554 39.2223 72.8401 38.7288C73.1248 38.2164 73.4475 37.7893 73.8081 37.4477C74.7192 36.5366 75.839 36.0811 77.1677 36.0811C78.4014 36.0811 79.4358 36.4797 80.271 37.2768C80.4987 37.5046 80.6885 37.7419 80.8404 37.9886C80.9922 38.2164 81.1156 38.4821 81.2105 38.7858C81.3244 39.0895 81.4098 39.4406 81.4667 39.8392C81.5426 40.2378 81.5996 40.7028 81.6375 41.2343V47.9248C81.6375 48.3424 81.6565 48.6746 81.6945 48.9213C81.7324 49.1491 81.8179 49.3294 81.9507 49.4623C82.0836 49.5761 82.2829 49.6521 82.5486 49.69C82.8333 49.709 83.2129 49.7185 83.6874 49.7185H84.086V51.0281ZM95.5815 42.8286C95.3537 42.9425 95.1544 43.0374 94.9836 43.1133C94.8317 43.1892 94.6704 43.2652 94.4996 43.3411C94.3288 43.417 94.1389 43.4929 93.9302 43.5688C93.7404 43.6448 93.4936 43.7397 93.1899 43.8535C92.184 44.2521 91.4153 44.5938 90.8838 44.8785C90.3524 45.1632 89.9253 45.4574 89.6026 45.7611C89.0712 46.2735 88.8055 46.8714 88.8055 47.5547C88.8055 48.219 89.0048 48.7505 89.4033 49.1491C89.8209 49.5477 90.3618 49.747 91.0262 49.747C91.8993 49.747 92.6964 49.5002 93.4177 49.0067C94.1579 48.5132 94.6894 47.8584 95.012 47.0423C95.2208 46.5488 95.3632 46.0173 95.4391 45.4479C95.534 44.8785 95.5815 44.1952 95.5815 43.398V42.8286ZM101.703 45.8465C101.703 46.3779 101.684 46.843 101.646 47.2415C101.627 47.6212 101.598 47.9628 101.56 48.2665C101.522 48.5512 101.465 48.8074 101.389 49.0352C101.333 49.263 101.266 49.4717 101.19 49.6615C100.924 50.155 100.554 50.5631 100.08 50.8858C99.6243 51.1895 99.1213 51.3413 98.5709 51.3413C98.0774 51.3413 97.6408 51.2369 97.2612 51.0281C96.8816 50.8194 96.5589 50.5346 96.2932 50.174C96.0465 49.8134 95.8567 49.3958 95.7238 48.9213C95.6099 48.4468 95.572 47.9533 95.6099 47.4408H95.553C95.3442 47.8584 95.0975 48.2665 94.8128 48.6651C94.528 49.0447 94.2528 49.3674 93.9871 49.6331C93.4746 50.1455 92.8578 50.5536 92.1365 50.8573C91.4342 51.142 90.6845 51.2844 89.8873 51.2844C89.3559 51.2844 88.8719 51.199 88.4353 51.0281C87.9988 50.8573 87.6192 50.6201 87.2965 50.3164C86.9739 49.9937 86.7176 49.6236 86.5278 49.206C86.357 48.7695 86.2716 48.295 86.2716 47.7825C86.2716 46.6626 86.8695 45.6757 88.0652 44.8215C88.274 44.6887 88.4828 44.5653 88.6916 44.4514C88.9004 44.3186 89.1471 44.1952 89.4318 44.0813C89.7165 43.9485 90.0582 43.8061 90.4568 43.6543C90.8553 43.4834 91.3393 43.2936 91.9088 43.0848C92.4592 42.895 92.9147 42.7337 93.2753 42.6008C93.6549 42.449 93.9681 42.3161 94.2149 42.2023C94.4806 42.0884 94.7178 41.984 94.9266 41.8891C95.1354 41.7752 95.3537 41.6423 95.5815 41.4905V40.6648C95.5815 38.596 94.4331 37.5616 92.1365 37.5616C90.9977 37.5616 90.0961 37.8747 89.4318 38.5011C89.1851 38.7478 89.0617 38.9661 89.0617 39.1559C89.0617 39.1939 89.0712 39.2508 89.0902 39.3267C89.1091 39.4026 89.1661 39.4976 89.261 39.6114C89.5837 40.048 89.745 40.4655 89.745 40.8641C89.745 41.2437 89.6121 41.5759 89.3464 41.8606C89.0807 42.1453 88.7675 42.2877 88.4069 42.2877C88.0083 42.2877 87.6761 42.1453 87.4104 41.8606C87.1637 41.5569 87.0403 41.1583 87.0403 40.6648C87.0403 40.0385 87.1826 39.4596 87.4673 38.9281C87.752 38.3777 88.1411 37.9032 88.6346 37.5046C89.1471 37.087 89.745 36.7644 90.4283 36.5366C91.1116 36.3088 91.8423 36.195 92.6205 36.195C93.4746 36.195 94.2433 36.3183 94.9266 36.5651C95.6289 36.8118 96.2173 37.163 96.6918 37.6185C97.1094 38.0361 97.4036 38.5011 97.5744 39.0135C97.7452 39.526 97.8306 40.1808 97.8306 40.978V47.7255C97.8306 49.1301 98.2197 49.8324 98.9979 49.8324C100.004 49.8324 100.507 48.6746 100.507 46.359V45.8465H101.703ZM110.271 49.5761C108.639 49.6141 107.433 49.8134 106.655 50.174C105.896 50.5346 105.516 51.0851 105.516 51.8253C105.516 52.6225 105.924 53.2299 106.741 53.6474C107.576 54.084 108.734 54.3023 110.214 54.3023C111.789 54.3023 113.014 54.0745 113.887 53.619C114.76 53.1634 115.196 52.5181 115.196 51.683C115.196 50.9237 114.836 50.3828 114.114 50.0601C113.393 49.7375 112.197 49.5761 110.527 49.5761H110.271ZM111.552 47.4408C113.298 47.4408 114.627 47.7635 115.538 48.4088C116.449 49.0352 116.905 49.9557 116.905 51.1705C116.905 51.7968 116.734 52.3568 116.392 52.8503C116.069 53.3627 115.604 53.7993 114.997 54.1599C114.409 54.5395 113.697 54.8242 112.862 55.014C112.027 55.2228 111.116 55.3272 110.129 55.3272C109.18 55.3272 108.316 55.2513 107.538 55.0994C106.779 54.9666 106.124 54.7578 105.573 54.4731C105.023 54.2074 104.596 53.8847 104.292 53.5051C103.988 53.1255 103.837 52.6984 103.837 52.2239C103.837 51.6165 104.064 51.0946 104.52 50.658C104.975 50.2215 105.735 49.8039 106.798 49.4053V49.3484C105.127 49.0447 104.292 48.219 104.292 46.8714C104.292 45.4669 105.156 44.6507 106.883 44.423V44.366C106.048 43.8725 105.44 43.3411 105.061 42.7717C104.681 42.1833 104.491 41.5095 104.491 40.7503C104.491 40.1049 104.634 39.4976 104.918 38.9281C105.203 38.3587 105.592 37.8652 106.086 37.4477C106.579 37.0301 107.168 36.7074 107.851 36.4797C108.534 36.2329 109.274 36.1095 110.072 36.1095C111.229 36.1095 112.245 36.3278 113.118 36.7644C113.517 36.9732 113.839 37.1819 114.086 37.3907C114.333 37.5995 114.646 37.9317 115.026 38.3872C115.424 36.9067 116.269 36.1665 117.559 36.1665C118.167 36.1665 118.67 36.3658 119.068 36.7644C119.486 37.144 119.695 37.609 119.695 38.1594C119.695 38.577 119.571 38.9281 119.325 39.2128C119.097 39.4786 118.812 39.6114 118.47 39.6114C118.167 39.6114 117.911 39.526 117.702 39.3552C117.512 39.1654 117.417 38.9376 117.417 38.6719C117.417 38.558 117.427 38.4631 117.446 38.3872C117.465 38.2923 117.512 38.1689 117.588 38.0171C117.664 37.8083 117.702 37.6565 117.702 37.5616C117.702 37.2958 117.54 37.163 117.218 37.163C116.838 37.163 116.525 37.3053 116.278 37.59C116.069 37.8178 115.889 38.093 115.737 38.4157C115.585 38.7383 115.51 39.023 115.51 39.2698C115.51 39.2698 115.529 39.3267 115.566 39.4406C115.623 39.6304 115.671 39.8392 115.709 40.067C115.747 40.2757 115.766 40.4845 115.766 40.6933C115.766 41.3576 115.623 41.9745 115.339 42.5439C115.073 43.0943 114.693 43.5688 114.2 43.9674C113.706 44.366 113.118 44.6792 112.435 44.907C111.751 45.1347 111.002 45.2486 110.186 45.2486C110.034 45.2486 109.853 45.2486 109.645 45.2486C109.455 45.2486 109.18 45.2296 108.819 45.1917C108.439 45.1537 108.136 45.1347 107.908 45.1347C107.699 45.1157 107.5 45.1063 107.31 45.1063C106.703 45.1063 106.219 45.2201 105.858 45.4479C105.497 45.6567 105.317 45.9414 105.317 46.302C105.317 46.6816 105.535 46.9663 105.972 47.1561C106.408 47.3459 107.035 47.4408 107.851 47.4408H111.552ZM110.1 37.0776C109.075 37.0776 108.278 37.3907 107.709 38.0171C107.158 38.6245 106.883 39.4976 106.883 40.6364C106.883 41.7562 107.168 42.6388 107.737 43.2841C108.306 43.9105 109.094 44.2237 110.1 44.2237C111.163 44.2237 111.97 43.92 112.52 43.3126C113.071 42.7052 113.346 41.8132 113.346 40.6364C113.346 39.4976 113.061 38.6245 112.492 38.0171C111.941 37.3907 111.144 37.0776 110.1 37.0776ZM130.207 51.0281H121.808V49.7185H122.947C123.422 49.7185 123.792 49.709 124.057 49.69C124.342 49.6521 124.551 49.5761 124.684 49.4623C124.836 49.3294 124.93 49.1491 124.968 48.9213C125.006 48.6746 125.025 48.3424 125.025 47.9248V39.8107C125.025 39.0895 124.855 38.577 124.513 38.2733C124.171 37.9506 123.602 37.7893 122.805 37.7893H121.58V36.5651L127.303 36.138V47.9248C127.303 48.3424 127.322 48.6746 127.36 48.9213C127.398 49.1491 127.483 49.3294 127.616 49.4623C127.768 49.5761 127.977 49.6521 128.243 49.69C128.527 49.709 128.907 49.7185 129.381 49.7185H130.207V51.0281ZM125.908 30.814C126.382 30.814 126.791 30.9848 127.132 31.3265C127.474 31.6492 127.645 32.0572 127.645 32.5507C127.645 33.0442 127.474 33.4618 127.132 33.8034C126.791 34.1261 126.382 34.2874 125.908 34.2874C125.414 34.2874 124.997 34.1261 124.655 33.8034C124.333 33.4618 124.171 33.0442 124.171 32.5507C124.171 32.0572 124.333 31.6492 124.655 31.3265C124.997 30.9848 125.414 30.814 125.908 30.814Z" fill="black"/>
<path d="M63.8961 96.6241C64.029 97.0417 64.1524 97.4023 64.2663 97.706C64.3801 98.0097 64.494 98.2849 64.6079 98.5317C64.7408 98.7784 64.8736 99.0062 65.0065 99.215C65.1583 99.4048 65.3197 99.6136 65.4905 99.8413C66.0409 100.487 66.6483 100.99 67.3126 101.35C67.9959 101.692 68.6982 101.863 69.4194 101.863C70.3495 101.863 71.1277 101.607 71.754 101.094C72.3804 100.582 72.6935 99.9362 72.6935 99.158C72.6935 98.3798 72.4088 97.7725 71.8394 97.3359C71.5168 97.0892 71.1087 96.8804 70.6152 96.7096C70.1217 96.5387 69.3815 96.3489 68.3945 96.1401C67.9769 96.0642 67.6543 95.9978 67.4265 95.9409C67.1987 95.8839 66.9045 95.7985 66.5439 95.6846C65.2343 95.324 64.2663 94.8305 63.6399 94.2041C63.0325 93.5778 62.7288 92.7806 62.7288 91.8126C62.7288 91.2052 62.8332 90.6548 63.042 90.1613C63.2508 89.6489 63.545 89.2123 63.9246 88.8517C64.3232 88.4911 64.7882 88.2158 65.3197 88.026C65.8511 87.8172 66.449 87.7129 67.1133 87.7129C67.8535 87.7129 68.5558 87.8552 69.2201 88.1399C69.8845 88.4056 70.5488 88.8327 71.2131 89.4211C71.4219 89.1554 71.5832 88.9181 71.6971 88.7093C71.811 88.4816 71.9438 88.1494 72.0957 87.7129H72.9213L73.1206 93.1223H72.1526C71.9248 92.4959 71.7161 92.0214 71.5263 91.6987C71.3554 91.3571 71.1087 91.006 70.786 90.6453C69.7421 89.4496 68.5179 88.8517 67.1133 88.8517C66.3161 88.8517 65.6518 89.0605 65.1204 89.478C64.5889 89.8766 64.3232 90.3891 64.3232 91.0154C64.3232 91.7557 64.6648 92.3251 65.3481 92.7237C65.6898 92.9325 66.0884 93.1033 66.5439 93.2361C67.0184 93.369 67.7112 93.5209 68.6223 93.6917C68.85 93.7486 69.0398 93.7961 69.1917 93.834C69.3625 93.853 69.5143 93.8815 69.6472 93.9194C69.799 93.9574 69.9414 93.9954 70.0743 94.0333C70.2261 94.0523 70.3969 94.0903 70.5867 94.1472C70.8904 94.2421 71.1466 94.3275 71.3554 94.4034C71.5832 94.4794 71.7825 94.5648 71.9533 94.6597C72.1241 94.7356 72.2855 94.8305 72.4373 94.9444C72.5892 95.0393 72.741 95.1532 72.8928 95.286C73.8608 96.0832 74.3448 97.1461 74.3448 98.4747C74.3448 99.1201 74.2215 99.7274 73.9747 100.297C73.728 100.847 73.3768 101.331 72.9213 101.749C72.4848 102.147 71.9723 102.461 71.3839 102.688C70.7955 102.935 70.1597 103.059 69.4764 103.059C68.3375 103.059 67.2746 102.745 66.2877 102.119C66.0219 101.948 65.7847 101.777 65.5759 101.607C65.3861 101.436 65.1299 101.179 64.8072 100.838C64.5605 101.179 64.3706 101.512 64.2378 101.834C64.1049 102.157 63.9815 102.556 63.8677 103.03H62.8427L62.7004 96.6241H63.8961ZM103.242 102.66H96.0679V101.35H96.4095C96.8841 101.35 97.2542 101.341 97.5199 101.322C97.8046 101.284 98.0134 101.208 98.1463 101.094C98.2981 100.961 98.393 100.781 98.431 100.553C98.4689 100.306 98.4879 99.9742 98.4879 99.5566V93.0653C98.4879 91.8885 98.2317 90.987 97.7192 90.3606C97.2257 89.7343 96.5044 89.4211 95.5554 89.4211C94.9291 89.4211 94.3502 89.6014 93.8187 89.962C93.2873 90.3037 92.8223 90.7782 92.4237 91.3856C92.0441 91.9929 91.7404 92.7142 91.5126 93.5493C91.3038 94.3845 91.1994 95.286 91.1994 96.254V99.5566C91.1994 99.9742 91.2184 100.306 91.2564 100.553C91.2943 100.781 91.3797 100.961 91.5126 101.094C91.6644 101.208 91.8732 101.284 92.139 101.322C92.4237 101.341 92.8033 101.35 93.2778 101.35H93.6764V102.66H86.4448V101.35H86.8434C87.3179 101.35 87.6881 101.341 87.9538 101.322C88.2385 101.284 88.4473 101.208 88.5801 101.094C88.713 100.961 88.7984 100.781 88.8364 100.553C88.8743 100.306 88.8933 99.9742 88.8933 99.5566V93.1223C88.8933 91.9265 88.6466 91.0154 88.1531 90.3891C87.6786 89.7438 86.9858 89.4211 86.0747 89.4211C85.4104 89.4211 84.803 89.5919 84.2526 89.9336C83.7212 90.2562 83.2561 90.7118 82.8575 91.3001C82.459 91.8885 82.1458 92.5908 81.918 93.407C81.7092 94.2231 81.6048 95.1247 81.6048 96.1117V99.5566C81.6048 99.9742 81.6238 100.306 81.6618 100.553C81.6997 100.781 81.7852 100.961 81.918 101.094C82.0699 101.208 82.2786 101.284 82.5444 101.322C82.8291 101.341 83.2087 101.35 83.6832 101.35H84.0533V102.66H76.4801V101.35H77.2488C77.7233 101.35 78.0935 101.341 78.3592 101.322C78.6439 101.284 78.8527 101.208 78.9855 101.094C79.1184 100.961 79.2038 100.781 79.2418 100.553C79.2797 100.306 79.2987 99.9742 79.2987 99.5566V91.471C79.2987 90.1993 78.6344 89.5634 77.3058 89.5634H76.5655V88.2823L81.6048 87.9121V92.1827H81.6618C81.8136 91.7652 81.9465 91.414 82.0604 91.1293C82.1743 90.8446 82.2881 90.5979 82.402 90.3891C82.5349 90.1613 82.6677 89.962 82.8006 89.7912C82.9335 89.6014 83.0948 89.4021 83.2846 89.1933C84.1577 88.2063 85.3724 87.7129 86.9288 87.7129C87.783 87.7129 88.5517 87.9406 89.235 88.3961C89.9183 88.8517 90.4212 89.478 90.7439 90.2752C90.8768 90.5789 90.9622 90.8731 91.0001 91.1578C91.0571 91.4235 91.095 91.8031 91.114 92.2966H91.171C91.4367 91.4994 91.7119 90.8541 91.9966 90.3606C92.2813 89.8481 92.604 89.4211 92.9646 89.0794C93.8757 88.1684 94.9955 87.7129 96.3241 87.7129C97.5579 87.7129 98.5923 88.1114 99.4274 88.9086C99.6552 89.1364 99.845 89.3736 99.9968 89.6204C100.149 89.8481 100.272 90.1139 100.367 90.4176C100.481 90.7212 100.566 91.0724 100.623 91.471C100.699 91.8696 100.756 92.3346 100.794 92.866V99.5566C100.794 99.9742 100.813 100.306 100.851 100.553C100.889 100.781 100.974 100.961 101.107 101.094C101.24 101.208 101.439 101.284 101.705 101.322C101.99 101.341 102.369 101.35 102.844 101.35H103.242V102.66ZM113.998 102.66H105.599V101.35H106.738C107.212 101.35 107.582 101.341 107.848 101.322C108.133 101.284 108.342 101.208 108.474 101.094C108.626 100.961 108.721 100.781 108.759 100.553C108.797 100.306 108.816 99.9742 108.816 99.5566V91.4425C108.816 90.7212 108.645 90.2088 108.304 89.9051C107.962 89.5824 107.393 89.4211 106.595 89.4211H105.371V88.1969L111.094 87.7698V99.5566C111.094 99.9742 111.113 100.306 111.151 100.553C111.189 100.781 111.274 100.961 111.407 101.094C111.559 101.208 111.767 101.284 112.033 101.322C112.318 101.341 112.698 101.35 113.172 101.35H113.998V102.66ZM109.699 82.4458C110.173 82.4458 110.581 82.6166 110.923 82.9583C111.265 83.2809 111.435 83.689 111.435 84.1825C111.435 84.676 111.265 85.0936 110.923 85.4352C110.581 85.7579 110.173 85.9192 109.699 85.9192C109.205 85.9192 108.788 85.7579 108.446 85.4352C108.123 85.0936 107.962 84.676 107.962 84.1825C107.962 83.689 108.123 83.2809 108.446 82.9583C108.788 82.6166 109.205 82.4458 109.699 82.4458ZM125.286 102.66H116.859V101.35H118.026C118.5 101.35 118.87 101.341 119.136 101.322C119.421 101.284 119.63 101.208 119.763 101.094C119.914 100.961 120.009 100.781 120.047 100.553C120.085 100.306 120.104 99.9742 120.104 99.5566V85.9477C120.104 84.7329 119.411 84.1256 118.026 84.1256H116.631V82.8444L122.41 82.5027V99.5566C122.41 99.9742 122.429 100.306 122.467 100.553C122.505 100.781 122.591 100.961 122.723 101.094C122.856 101.208 123.056 101.284 123.321 101.322C123.606 101.341 123.986 101.35 124.46 101.35H125.286V102.66Z" fill="black"/>
<path d="M82.8349 77.2089H74.009V75.8993H74.92C75.3945 75.8993 75.7647 75.8898 76.0304 75.8708C76.3151 75.8328 76.5239 75.7569 76.6567 75.643C76.7896 75.5102 76.875 75.3299 76.913 75.1021C76.9509 74.8554 76.9699 74.5232 76.9699 74.1056V64.4826H74.0374V63.2583H76.9699V62.091C76.9699 60.4967 77.4065 59.263 78.2796 58.3899C79.1527 57.4978 80.3674 57.0517 81.9238 57.0517C82.9867 57.0517 83.8218 57.2605 84.4292 57.6781C85.0556 58.0957 85.3687 58.6651 85.3687 59.3863C85.3687 59.8419 85.2264 60.231 84.9417 60.5536C84.657 60.8573 84.3058 61.0092 83.8883 61.0092C83.5087 61.0092 83.186 60.8953 82.9203 60.6675C82.6735 60.4397 82.5502 60.1645 82.5502 59.8419C82.5502 59.7849 82.5596 59.7185 82.5786 59.6426C82.6166 59.5666 82.6545 59.4623 82.6925 59.3294C82.8064 59.0447 82.8633 58.8549 82.8633 58.76C82.8633 58.5892 82.7684 58.4563 82.5786 58.3614C82.4078 58.2475 82.1705 58.1906 81.8669 58.1906C81.0697 58.1906 80.4338 58.4658 79.9593 59.0162C79.5038 59.5477 79.276 60.2974 79.276 61.2654V63.2583H82.1516V64.4826H79.276V74.1056C79.276 74.5232 79.295 74.8554 79.333 75.1021C79.3709 75.3299 79.4563 75.5102 79.5892 75.643C79.7411 75.7569 79.9498 75.8328 80.2156 75.8708C80.5003 75.8898 80.8799 75.8993 81.3544 75.8993H82.8349V77.2089ZM92.1759 62.2334C93.1818 62.2334 94.1119 62.4327 94.966 62.8313C95.8201 63.2109 96.5603 63.7423 97.1867 64.4256C97.8131 65.1089 98.2971 65.9251 98.6387 66.8741C98.9993 67.8041 99.1796 68.8196 99.1796 69.9205C99.1796 71.0403 99.0088 72.0747 98.6672 73.0237C98.3255 73.9538 97.8415 74.7605 97.2152 75.4437C96.5888 76.127 95.8486 76.6585 94.9945 77.0381C94.1403 77.4177 93.2008 77.6075 92.1759 77.6075C91.1699 77.6075 90.2399 77.4177 89.3858 77.0381C88.5316 76.6585 87.7914 76.127 87.1651 75.4437C86.5387 74.7605 86.0452 73.9538 85.6846 73.0237C85.3429 72.0747 85.1721 71.0403 85.1721 69.9205C85.1721 68.8006 85.3429 67.7757 85.6846 66.8456C86.0262 65.8966 86.5102 65.0805 87.1366 64.3972C87.7629 63.7139 88.5032 63.1824 89.3573 62.8028C90.2114 62.4232 91.1509 62.2334 92.1759 62.2334ZM92.2328 63.543C91.3977 63.543 90.6954 63.7328 90.126 64.1125C89.5566 64.4731 89.0916 64.9571 88.7309 65.5645C88.3893 66.1718 88.1425 66.8646 87.9907 67.6428C87.8389 68.402 87.7629 69.1707 87.7629 69.9489C87.7629 71.9419 88.152 73.5077 88.9302 74.6466C89.7084 75.7664 90.7903 76.3263 92.1759 76.3263C93.5804 76.3263 94.6623 75.7759 95.4215 74.675C96.1997 73.5552 96.5888 71.9798 96.5888 69.9489C96.5888 67.918 96.1997 66.3426 95.4215 65.2228C94.6623 64.103 93.5994 63.543 92.2328 63.543ZM110.575 77.2089H101.806V75.8993H102.631C103.106 75.8993 103.476 75.8898 103.742 75.8708C104.026 75.8328 104.235 75.7569 104.368 75.643C104.52 75.5102 104.615 75.3299 104.653 75.1021C104.691 74.8554 104.71 74.5232 104.71 74.1056V66.1339C104.71 64.7293 104.14 64.027 103.001 64.027H101.976V62.8028L106.987 62.4612V66.6748H107.044C107.348 65.7827 107.661 65.0899 107.984 64.5965C108.325 64.084 108.677 63.6474 109.037 63.2868C109.739 62.6035 110.546 62.2619 111.457 62.2619C112.368 62.2619 113.118 62.5656 113.706 63.1729C114.295 63.7613 114.589 64.5205 114.589 65.4506C114.589 66.02 114.437 66.504 114.133 66.9026C113.849 67.2822 113.488 67.472 113.051 67.472C112.615 67.472 112.264 67.3296 111.998 67.0449C111.732 66.7412 111.599 66.3616 111.599 65.9061C111.599 65.6973 111.637 65.517 111.713 65.3652C111.808 65.1943 111.97 65.0235 112.197 64.8527C112.349 64.7388 112.444 64.6439 112.482 64.568C112.539 64.4921 112.567 64.4066 112.567 64.3117C112.567 64.046 112.435 63.8277 112.169 63.6569C111.922 63.4671 111.609 63.3722 111.229 63.3722C110.527 63.3722 109.834 63.7139 109.151 64.3972C108.487 65.0425 107.993 65.8017 107.671 66.6748C107.367 67.5289 107.139 68.4685 106.987 69.4934V74.1056C106.987 74.5232 107.006 74.8554 107.044 75.1021C107.082 75.3299 107.168 75.5102 107.3 75.643C107.452 75.7569 107.661 75.8328 107.927 75.8708C108.211 75.8898 108.591 75.8993 109.066 75.8993H110.575V77.2089Z" fill="black"/>
<path d="M137.046 25.9665C136.442 26.3252 135.763 26.4066 135.122 26.1971C134.481 25.9876 133.917 25.4998 133.523 24.8149C133.46 24.7072 133.369 24.6333 133.267 24.6075C133.165 24.5816 133.058 24.6056 132.968 24.6749C132.878 24.7441 132.811 24.8537 132.779 24.9827C132.747 25.1117 132.753 25.2509 132.796 25.3737C133.069 26.1517 133.127 27.0291 132.961 27.8598C132.794 28.6906 132.413 29.4244 131.88 29.9391C131.796 30.0206 131.739 30.1389 131.718 30.2715C131.697 30.4041 131.715 30.5415 131.768 30.6575C131.821 30.7735 131.905 30.8598 132.005 30.8999C132.104 30.94 132.212 30.9312 132.307 30.8749C132.91 30.5162 133.589 30.4348 134.23 30.6443C134.871 30.8539 135.436 31.3417 135.83 32.0265C135.892 32.1343 135.983 32.2081 136.086 32.2339C136.188 32.2598 136.294 32.2357 136.384 32.1665C136.474 32.0972 136.542 31.9876 136.574 31.8587C136.605 31.7297 136.599 31.5905 136.556 31.4677C136.283 30.6897 136.225 29.8122 136.392 28.9814C136.558 28.1506 136.94 27.4168 137.472 26.9022C137.556 26.8207 137.614 26.7024 137.635 26.5698C137.655 26.4373 137.637 26.2998 137.585 26.1839C137.532 26.0679 137.447 25.9816 137.348 25.9415C137.249 25.9014 137.141 25.9103 137.046 25.9665Z" fill="black"/>
<path d="M128.157 16.8173C128.024 17.4049 127.74 17.9174 127.352 18.2692C126.964 18.6211 126.495 18.7912 126.024 18.7512C125.92 18.7429 125.817 18.7846 125.734 18.8683C125.652 18.952 125.596 19.0718 125.578 19.2047C125.559 19.3377 125.579 19.4745 125.634 19.5889C125.688 19.7033 125.774 19.7874 125.874 19.8249C126.327 19.9926 126.721 20.3565 126.99 20.8561C127.259 21.3557 127.388 21.9607 127.353 22.5704C127.346 22.7051 127.378 22.838 127.442 22.9438C127.506 23.0496 127.598 23.1209 127.701 23.1439C127.803 23.167 127.909 23.1402 127.998 23.0688C128.087 22.9973 128.152 22.8862 128.182 22.7567C128.315 22.1691 128.599 21.6567 128.988 21.3048C129.376 20.953 129.844 20.7828 130.316 20.8228C130.42 20.831 130.523 20.7893 130.605 20.7056C130.687 20.6219 130.743 20.5022 130.761 20.3693C130.78 20.2364 130.76 20.0996 130.706 19.9852C130.651 19.8708 130.566 19.7867 130.466 19.7491C130.012 19.5814 129.618 19.2175 129.349 18.7179C129.08 18.2183 128.952 17.6133 128.986 17.0035C128.993 16.8689 128.962 16.736 128.898 16.6301C128.833 16.5243 128.741 16.4531 128.639 16.43C128.536 16.407 128.43 16.4337 128.341 16.5052C128.252 16.5766 128.187 16.6878 128.157 16.8173Z" fill="black"/>
<line x1="122.552" y1="40.0699" x2="129.885" y2="40.0699" stroke="#FFFDEF" stroke-width="1.29412"/>
</svg>
