<svg width="1429" height="6654" viewBox="0 0 1429 6654" fill="none" xmlns="http://www.w3.org/2000/svg">
<path d="M1278 21L1275.18 31.6322L1278 21ZM571.557 1830V1819H571.286L571.014 1819.01L571.557 1830ZM279.999 3118.5L288.015 3126.03L279.999 3118.5ZM211.5 4115.5L222.461 4116.42L211.5 4115.5ZM219.998 6231L230.743 6233.35L219.998 6231ZM1170.24 1.02636C1164.18 1.44675 1159.61 6.7006 1160.03 12.7612C1160.45 18.8217 1165.7 23.394 1171.76 22.9736L1170.24 1.02636ZM1275.18 31.6322C1357.99 53.6002 1397.31 136.556 1396.74 240.11C1396.17 343.177 1355.61 461.966 1284.09 546.915L1300.91 561.085C1375.89 472.034 1418.15 348.218 1418.74 240.231C1419.33 132.733 1378.15 36.1886 1280.82 10.3678L1275.18 31.6322ZM1284.09 546.915C1267.18 566.988 1241.16 584.941 1207.17 601.057C1173.26 617.133 1132.07 631.08 1085.51 643.472C992.346 668.264 878.909 686.517 761.618 703.425C644.587 720.295 523.661 735.832 416.491 755.167C309.532 774.464 214.819 797.773 150.486 830.708L160.512 850.291C221.68 818.976 313.529 796.098 420.398 776.817C527.057 757.574 647.224 742.142 764.756 725.2C882.028 708.295 996.622 689.892 1091.16 664.732C1138.45 652.147 1181.04 637.793 1216.59 620.937C1252.06 604.121 1281.19 584.512 1300.91 561.085L1284.09 546.915ZM150.486 830.708C86.6131 863.408 51.5601 898.031 36.9985 935.878C22.4019 973.816 29.3927 1012.43 43.5629 1050.58C50.6638 1069.7 59.7286 1089.11 69.1595 1108.63C78.6577 1128.3 88.4871 1147.98 97.4937 1168.26C115.492 1208.78 129.5 1250.19 129.5 1293.5H151.5C151.5 1245.56 136.008 1200.78 117.6 1159.33C108.403 1138.63 98.3027 1118.38 88.9688 1099.06C79.5676 1079.61 70.8978 1060.99 64.1862 1042.92C50.7311 1006.69 45.7841 974.309 57.5312 943.778C69.3131 913.156 98.885 881.841 160.512 850.291L150.486 830.708ZM129.5 1293.5C129.5 1337.14 115.876 1387.08 96.9954 1440.19C87.5913 1466.64 76.9918 1493.6 66.3004 1520.72C55.6338 1547.79 44.8724 1575.03 35.273 1601.78C16.1484 1655.08 1.17339 1707.63 0.831197 1754.67C0.484777 1802.29 15.1805 1844.96 55.7278 1876.67L69.2788 1859.33C35.3261 1832.79 22.5214 1797.34 22.8306 1754.83C23.144 1711.74 36.9807 1662.17 55.9803 1609.22C65.443 1582.84 76.0718 1555.93 86.7681 1528.79C97.4396 1501.71 108.176 1474.42 117.724 1447.56C136.75 1394.04 151.5 1341.11 151.5 1293.5H129.5ZM55.7278 1876.67C95.0437 1907.41 147.057 1923.47 200.692 1935.05C227.604 1940.86 255.375 1945.63 282.47 1950.46C309.677 1955.31 336.256 1960.24 361.298 1966.43C411.671 1978.87 453.978 1995.99 481.531 2025.8C508.528 2055 522.908 2098.14 513.472 2166.5L535.265 2169.5C545.329 2096.61 530.35 2046.19 497.685 2010.86C465.575 1976.13 417.916 1957.75 366.573 1945.07C340.757 1938.69 313.54 1933.66 286.334 1928.8C259.015 1923.93 231.754 1919.25 205.335 1913.54C152.308 1902.09 104.463 1886.84 69.2788 1859.33L55.7278 1876.67ZM513.472 2166.5C494.178 2306.26 430.65 2375.87 361.151 2378.82C325.855 2380.32 286.469 2365.12 246.921 2329.87C207.375 2294.63 168.215 2239.77 133.9 2163.49L113.836 2172.51C149.021 2250.73 189.799 2308.43 232.284 2346.3C274.768 2384.16 319.507 2402.61 362.086 2400.8C448.337 2397.13 515.56 2312.24 535.265 2169.5L513.472 2166.5ZM133.9 2163.49C117.134 2126.22 111.615 2093.86 114.152 2065.75C116.683 2037.69 127.297 2013.15 143.904 1991.53C177.41 1947.89 235.277 1916.19 299.266 1893.49C362.957 1870.89 431.156 1857.74 483.615 1850.25C509.804 1846.51 531.98 1844.19 547.59 1842.81C555.393 1842.12 561.551 1841.66 565.744 1841.38C567.84 1841.23 569.444 1841.14 570.517 1841.07C571.054 1841.04 571.457 1841.02 571.723 1841.01C571.855 1841 571.954 1840.99 572.017 1840.99C572.049 1840.99 572.071 1840.99 572.085 1840.99C572.092 1840.99 572.096 1840.99 572.1 1840.99C572.101 1840.99 572.1 1840.99 571.557 1830C571.014 1819.01 571.009 1819.01 571.002 1819.01C570.996 1819.01 570.987 1819.01 570.976 1819.02C570.954 1819.02 570.924 1819.02 570.884 1819.02C570.806 1819.02 570.691 1819.03 570.543 1819.04C570.245 1819.05 569.81 1819.08 569.24 1819.11C568.101 1819.18 566.428 1819.28 564.262 1819.43C559.928 1819.72 553.617 1820.19 545.649 1820.89C529.718 1822.3 507.145 1824.66 480.504 1828.47C427.301 1836.07 357.516 1849.48 291.91 1872.76C226.601 1895.93 163.859 1929.42 126.455 1978.13C107.606 2002.67 95.1889 2031.1 92.2411 2063.77C89.2987 2096.38 95.8522 2132.53 113.836 2172.51L133.9 2163.49ZM571.557 1841C646.805 1841 740.026 1876.01 836.868 1936.87C933.448 1997.56 1032.5 2083.25 1119.19 2182.94C1293.09 2382.92 1414.82 2636.23 1371.71 2854.87L1393.29 2859.13C1438.4 2630.36 1311.17 2370.18 1135.79 2168.5C1047.84 2067.37 947.175 1980.2 848.574 1918.24C750.235 1856.44 652.81 1819 571.557 1819V1841ZM1371.71 2854.87C1361.03 2909.03 1339.91 2949.3 1311.14 2979.2C1282.32 3009.14 1245.23 3029.3 1201.66 3042.24C1114.06 3068.28 1002.13 3064.7 883.871 3054.38C766.517 3044.15 642.87 3027.26 535.116 3028.1C427.581 3028.94 331.795 3047.32 271.983 3110.97L288.015 3126.03C341.202 3069.43 428.701 3050.93 535.288 3050.1C641.655 3049.27 762.966 3065.92 881.96 3076.3C1000.05 3086.6 1115.86 3090.7 1207.93 3063.33C1254.2 3049.58 1294.93 3027.77 1326.99 2994.45C1359.1 2961.09 1381.92 2916.82 1393.29 2859.13L1371.71 2854.87ZM271.983 3110.97C131.654 3260.3 58.3099 3372.29 27.6311 3463.21C-3.3237 3554.95 9.35841 3624.64 38.9972 3688.06C53.6593 3719.43 72.4492 3749.23 91.7251 3779.1C111.112 3809.14 130.994 3839.27 148.569 3872.06C183.505 3937.24 209.08 4012.54 200.538 4114.58L222.461 4116.42C231.442 4009.13 204.366 3929.59 167.96 3861.67C149.865 3827.91 129.404 3796.92 110.211 3767.17C90.9075 3737.25 72.8818 3708.6 58.9276 3678.74C31.3339 3619.7 19.5813 3555.88 48.4764 3470.25C77.6476 3383.8 148.438 3274.56 288.015 3126.03L271.983 3110.97ZM200.538 4114.58C196.647 4161.07 204.906 4196.97 224.551 4223.38C244.195 4249.79 273.974 4265.03 309.66 4272.74C380.316 4288.02 478.917 4274.77 584.31 4254.67C690.792 4234.37 804.708 4206.97 909.575 4191.95C1014.69 4176.89 1107.15 4174.94 1170.47 4203.53L1179.53 4183.47C1109.85 4152.03 1011.62 4155.11 906.456 4170.17C801.041 4185.27 685.082 4213.06 580.189 4233.06C474.208 4253.27 379.934 4265.43 314.309 4251.24C281.854 4244.22 257.641 4231.01 242.203 4210.25C226.766 4189.5 218.853 4159.53 222.461 4116.42L200.538 4114.58ZM1170.47 4203.53C1300.27 4262.11 1396.9 4380.04 1405.58 4536.19C1414.27 4692.6 1334.85 4890.03 1106.42 5107.02L1121.58 5122.97C1352.65 4903.47 1436.73 4700.18 1427.55 4534.97C1418.35 4369.51 1315.73 4244.95 1179.53 4183.47L1170.47 4203.53ZM1106.42 5107.02C878.992 5323.07 662.611 5372.57 480.903 5389.74C435.325 5394.04 391.962 5396.31 350.907 5398.65C309.963 5400.99 271.231 5403.41 235.437 5408.05C163.942 5417.32 102.312 5435.63 56.2215 5481.72L71.7778 5497.28C112.687 5456.37 168.37 5438.93 238.265 5429.87C273.167 5425.34 311.15 5422.96 352.161 5420.62C393.061 5418.28 436.894 5415.99 482.972 5411.64C667.889 5394.17 889.508 5343.43 1121.58 5122.97L1106.42 5107.02ZM56.2215 5481.72C33.2573 5504.69 19.4369 5528.81 13.2224 5554.27C7.02456 5579.67 8.58264 5605.6 15.1387 5631.93C28.1035 5684 61.2915 5739.79 96.1874 5799.1C166.809 5919.13 246.773 6057.42 209.253 6228.65L230.743 6233.35C270.341 6052.64 185.305 5907.18 115.149 5787.94C79.6552 5727.62 48.509 5674.9 36.4869 5626.62C30.5496 5602.77 29.4511 5580.57 34.595 5559.49C39.7223 5538.48 51.242 5517.81 71.7778 5497.28L56.2215 5481.72ZM209.253 6228.65C180.356 6360.52 233.471 6467.25 292.772 6540.24C322.441 6576.77 353.846 6605.1 377.815 6624.31C389.811 6633.92 399.975 6641.27 407.174 6646.24C410.774 6648.72 413.635 6650.61 415.614 6651.89C416.604 6652.53 417.374 6653.02 417.907 6653.35C418.173 6653.52 418.38 6653.65 418.525 6653.74C418.597 6653.78 418.655 6653.82 418.696 6653.85C418.717 6653.86 418.734 6653.87 418.747 6653.88C418.753 6653.88 418.76 6653.88 418.763 6653.89C418.769 6653.89 418.773 6653.89 424.498 6644.5C430.223 6635.11 430.226 6635.11 430.228 6635.11C430.227 6635.11 430.228 6635.11 430.226 6635.11C430.223 6635.11 430.216 6635.1 430.206 6635.1C430.184 6635.08 430.147 6635.06 430.095 6635.03C429.99 6634.96 429.824 6634.86 429.6 6634.72C429.15 6634.44 428.465 6634 427.562 6633.42C425.755 6632.25 423.078 6630.48 419.668 6628.13C412.847 6623.42 403.109 6616.39 391.571 6607.14C368.472 6588.63 338.282 6561.37 309.847 6526.37C252.938 6456.32 203.803 6356.3 230.743 6233.35L209.253 6228.65ZM1171 12C1171.76 22.9736 1171.76 22.9737 1171.76 22.9738C1171.76 22.9738 1171.76 22.9739 1171.76 22.9739C1171.76 22.9739 1171.76 22.9738 1171.76 22.9737C1171.76 22.9735 1171.77 22.9731 1171.78 22.9724C1171.8 22.9711 1171.83 22.9689 1171.88 22.9658C1171.97 22.9597 1172.12 22.9503 1172.32 22.9382C1172.72 22.914 1173.33 22.8792 1174.14 22.8389C1175.74 22.7582 1178.11 22.6554 1181.13 22.5713C1187.15 22.4028 1195.71 22.3094 1205.77 22.6132C1225.99 23.2241 1251.8 25.4301 1275.18 31.6322L1280.82 10.3678C1255.13 3.55167 1227.44 1.25764 1206.43 0.623185C1195.87 0.304256 1186.88 0.40175 1180.51 0.579861C1177.32 0.668974 1174.79 0.778434 1173.03 0.866639C1172.16 0.910749 1171.47 0.949568 1171 0.97791C1170.77 0.992082 1170.58 1.00364 1170.46 1.01193C1170.39 1.01607 1170.34 1.0194 1170.31 1.02184C1170.29 1.02305 1170.27 1.02404 1170.26 1.0248C1170.26 1.02518 1170.25 1.0255 1170.25 1.02576C1170.25 1.02589 1170.24 1.02604 1170.24 1.02611C1170.24 1.02624 1170.24 1.02636 1171 12Z" fill="#87B8FD"/>
</svg>
